STARTFONT 2.3
FONT -FontForge-Hanalei-Book-R-Normal--16-160-72-72-P-80-ISO10646-1
SIZE 16 72 72  2
FONTBOUNDINGBOX 21 21 -1 -4
COMMENT "Generated by fontforge, http://fontforge.sourceforge.net"
COMMENT "Copyright (c) 2012 by Brian J. Bonislawsky DBA Astigmatic (AOETI) (astigma@astigmatic.com), with ReservedFont Name "Hanalei""
STARTPROPERTIES 40
FOUNDRY "FontForge"
FAMILY_NAME "Hanalei"
WEIGHT_NAME "Book"
SLANT "R"
SETWIDTH_NAME "Normal"
ADD_STYLE_NAME ""
PIXEL_SIZE 16
POINT_SIZE 160
RESOLUTION_X 72
RESOLUTION_Y 72
SPACING "P"
AVERAGE_WIDTH 80
CHARSET_REGISTRY "ISO10646"
CHARSET_ENCODING "1"
FONTNAME_REGISTRY ""
CHARSET_COLLECTIONS "ISO8859-2 ISO8859-9 ISO8859-4 ISO10646-1"
BITS_PER_PIXEL 2
FONT_NAME "Hanalei-Regular"
FACE_NAME "Hanalei"
COPYRIGHT "Copyright (c) 2012 by Brian J. Bonislawsky DBA Astigmatic (AOETI) (astigma@astigmatic.com), with ReservedFont Name "Hanalei""
FONT_VERSION "1.000"
FONT_ASCENT 13
FONT_DESCENT 3
UNDERLINE_POSITION -2
UNDERLINE_THICKNESS 1
X_HEIGHT 10
CAP_HEIGHT 10
RAW_ASCENT 799
RAW_DESCENT 200
NORM_SPACE 3
RELATIVE_WEIGHT 40
RELATIVE_SETWIDTH 50
SUPERSCRIPT_X 0
SUPERSCRIPT_Y 7
SUPERSCRIPT_SIZE 10
SUBSCRIPT_X 0
SUBSCRIPT_Y 2
SUBSCRIPT_SIZE 10
AVG_LOWERCASE_WIDTH 86
AVG_UPPERCASE_WIDTH 84
ENDPROPERTIES
CHARS 366
STARTCHAR space
ENCODING 32
SWIDTH 200 0
DWIDTH 3 0
BBX 1 1 0 0
BITMAP
00
ENDCHAR
STARTCHAR exclam
ENCODING 33
SWIDTH 257 0
DWIDTH 4 0
BBX 4 11 0 0
BITMAP
55
41
51
51
51
51
51
55
14
54
54
ENDCHAR
STARTCHAR quotedbl
ENCODING 34
SWIDTH 476 0
DWIDTH 8 0
BBX 7 7 0 5
BITMAP
1454
4144
4144
5594
4144
4144
5554
ENDCHAR
STARTCHAR numbersign
ENCODING 35
SWIDTH 1076 0
DWIDTH 17 0
BBX 17 12 0 0
BITMAP
0401000000
1645456540
1144441540
1144495440
6659444440
1114444440
120844A580
6555491040
1185455540
1111415500
4111840100
551A455500
ENDCHAR
STARTCHAR dollar
ENCODING 36
SWIDTH 453 0
DWIDTH 7 0
BBX 7 15 0 -2
BITMAP
0140
0440
0450
0644
5504
4150
5640
5150
0504
0248
5554
4154
5940
0440
0540
ENDCHAR
STARTCHAR percent
ENCODING 37
SWIDTH 889 0
DWIDTH 14 0
BBX 14 11 0 0
BITMAP
25414000
45511000
45144000
45154000
55144000
55946550
00054550
00114410
00114510
00115110
00141590
ENDCHAR
STARTCHAR ampersand
ENCODING 38
SWIDTH 627 0
DWIDTH 10 0
BBX 10 12 0 0
BITMAP
055000
095540
105540
046040
055100
051400
050400
115550
428110
851150
516140
555500
ENDCHAR
STARTCHAR quotesingle
ENCODING 39
SWIDTH 246 0
DWIDTH 4 0
BBX 4 7 0 5
BITMAP
14
41
41
55
41
41
55
ENDCHAR
STARTCHAR parenleft
ENCODING 40
SWIDTH 387 0
DWIDTH 6 0
BBX 7 13 0 -1
BITMAP
0150
0410
1440
1540
5100
4400
8800
9500
1140
1840
0410
0114
0150
ENDCHAR
STARTCHAR parenright
ENCODING 41
SWIDTH 386 0
DWIDTH 6 0
BBX 7 13 0 -1
BITMAP
2500
5100
1140
0540
0410
0114
0210
0560
1440
1140
4100
4400
5400
ENDCHAR
STARTCHAR asterisk
ENCODING 42
SWIDTH 517 0
DWIDTH 8 0
BBX 8 8 0 4
BITMAP
0140
0140
5145
4561
1415
0550
1144
1414
ENDCHAR
STARTCHAR plus
ENCODING 43
SWIDTH 458 0
DWIDTH 7 0
BBX 7 7 0 2
BITMAP
0140
0440
5994
4144
5554
1440
0580
ENDCHAR
STARTCHAR comma
ENCODING 44
SWIDTH 228 0
DWIDTH 4 0
BBX 5 4 -1 -2
BITMAP
0500
1040
4100
1400
ENDCHAR
STARTCHAR hyphen
ENCODING 45
SWIDTH 465 0
DWIDTH 7 0
BBX 7 3 0 4
BITMAP
5554
4044
5554
ENDCHAR
STARTCHAR period
ENCODING 46
SWIDTH 202 0
DWIDTH 3 0
BBX 3 4 0 -1
BITMAP
10
44
44
10
ENDCHAR
STARTCHAR slash
ENCODING 47
SWIDTH 453 0
DWIDTH 7 0
BBX 7 11 0 0
BITMAP
0054
0044
0104
0250
0410
0440
1540
1140
5100
4100
1400
ENDCHAR
STARTCHAR zero
ENCODING 48
SWIDTH 646 0
DWIDTH 10 0
BBX 11 12 0 0
BITMAP
014000
012400
041500
185140
115540
510810
980204
410950
115580
094100
020400
005000
ENDCHAR
STARTCHAR one
ENCODING 49
SWIDTH 400 0
DWIDTH 6 0
BBX 6 13 0 -1
BITMAP
0100
0650
5110
4510
5650
0110
0110
0110
0150
0110
0110
0550
0040
ENDCHAR
STARTCHAR two
ENCODING 50
SWIDTH 502 0
DWIDTH 8 0
BBX 8 11 0 0
BITMAP
0590
1450
5144
4441
1465
0245
0454
1050
5194
5541
5555
ENDCHAR
STARTCHAR three
ENCODING 51
SWIDTH 456 0
DWIDTH 7 0
BBX 7 12 0 -1
BITMAP
5550
4024
5554
0514
1590
1440
1814
0258
5504
4154
5540
1000
ENDCHAR
STARTCHAR four
ENCODING 52
SWIDTH 514 0
DWIDTH 8 0
BBX 8 12 0 -1
BITMAP
0165
0115
0444
1595
1144
4595
4441
2555
0044
0044
0054
0010
ENDCHAR
STARTCHAR five
ENCODING 53
SWIDTH 500 0
DWIDTH 8 0
BBX 8 11 0 0
BITMAP
1594
4541
4554
5500
5598
1055
1551
0011
5665
4105
5558
ENDCHAR
STARTCHAR six
ENCODING 54
SWIDTH 520 0
DWIDTH 8 0
BBX 9 12 0 -1
BITMAP
054000
044000
144000
154000
115000
111800
665140
416440
464600
440500
585000
010000
ENDCHAR
STARTCHAR seven
ENCODING 55
SWIDTH 423 0
DWIDTH 7 0
BBX 7 11 0 0
BITMAP
5654
4104
5558
0254
0150
0110
0910
0440
0440
1040
1540
ENDCHAR
STARTCHAR eight
ENCODING 56
SWIDTH 527 0
DWIDTH 8 0
BBX 8 12 0 -1
BITMAP
1595
4046
6661
1151
1944
0814
1114
1184
4281
4411
2566
0400
ENDCHAR
STARTCHAR nine
ENCODING 57
SWIDTH 500 0
DWIDTH 8 0
BBX 8 12 0 -1
BITMAP
0154
5505
4155
9991
5154
1104
0610
0550
0450
1040
0540
0100
ENDCHAR
STARTCHAR colon
ENCODING 58
SWIDTH 245 0
DWIDTH 4 0
BBX 3 9 0 0
BITMAP
10
54
14
14
00
00
14
54
14
ENDCHAR
STARTCHAR semicolon
ENCODING 59
SWIDTH 270 0
DWIDTH 4 0
BBX 4 11 0 -2
BITMAP
04
11
11
04
00
00
00
15
41
44
50
ENDCHAR
STARTCHAR less
ENCODING 60
SWIDTH 445 0
DWIDTH 7 0
BBX 7 9 0 1
BITMAP
0050
0604
1514
4040
5600
5580
1514
0544
0050
ENDCHAR
STARTCHAR equal
ENCODING 61
SWIDTH 484 0
DWIDTH 8 0
BBX 7 7 0 2
BITMAP
5594
4044
1554
0000
5594
4044
1554
ENDCHAR
STARTCHAR greater
ENCODING 62
SWIDTH 445 0
DWIDTH 7 0
BBX 7 9 0 1
BITMAP
1400
4140
5150
0504
0154
0914
5154
4140
1400
ENDCHAR
STARTCHAR question
ENCODING 63
SWIDTH 455 0
DWIDTH 7 0
BBX 7 13 0 -1
BITMAP
1000
5540
4094
5504
0258
0414
1440
1200
1500
0400
1100
1100
0400
ENDCHAR
STARTCHAR at
ENCODING 64
SWIDTH 812 0
DWIDTH 13 0
BBX 13 13 0 -1
BITMAP
05555400
20411400
25555100
14555500
55445100
14555100
15114900
55555440
15411440
54555600
45500000
18440000
01540000
ENDCHAR
STARTCHAR A
ENCODING 65
SWIDTH 507 0
DWIDTH 8 0
BBX 9 11 0 0
BITMAP
094000
046000
145000
254400
119400
114500
669540
414040
455600
451100
541500
ENDCHAR
STARTCHAR B
ENCODING 66
SWIDTH 533 0
DWIDTH 9 0
BBX 9 13 0 -1
BITMAP
050000
206000
241540
125040
555600
524500
115400
564100
419100
564540
605500
615000
040000
ENDCHAR
STARTCHAR C
ENCODING 67
SWIDTH 515 0
DWIDTH 8 0
BBX 9 13 0 -1
BITMAP
040000
116500
104100
165600
250000
110000
110000
550000
410100
469500
454140
255500
140000
ENDCHAR
STARTCHAR D
ENCODING 68
SWIDTH 520 0
DWIDTH 8 0
BBX 9 13 0 -1
BITMAP
050000
244000
241000
151400
564100
515040
111540
555140
425500
511400
415000
564000
010000
ENDCHAR
STARTCHAR E
ENCODING 69
SWIDTH 490 0
DWIDTH 8 0
BBX 8 12 0 0
BITMAP
0400
1695
1141
1255
5500
5250
1104
5650
4100
5295
4141
5555
ENDCHAR
STARTCHAR F
ENCODING 70
SWIDTH 475 0
DWIDTH 8 0
BBX 8 12 0 0
BITMAP
0400
1695
1141
1255
5500
5250
1104
5650
4100
5100
4100
5500
ENDCHAR
STARTCHAR G
ENCODING 71
SWIDTH 557 0
DWIDTH 9 0
BBX 9 13 0 -1
BITMAP
040000
116500
104100
165600
250000
110500
111040
550440
411540
469440
454440
255540
140000
ENDCHAR
STARTCHAR H
ENCODING 72
SWIDTH 611 0
DWIDTH 10 0
BBX 10 12 0 0
BITMAP
040100
150480
110440
110440
550940
510440
110950
565410
414550
525440
411440
551540
ENDCHAR
STARTCHAR I
ENCODING 73
SWIDTH 266 0
DWIDTH 4 0
BBX 4 12 0 0
BITMAP
04
15
11
11
55
51
11
55
41
51
41
55
ENDCHAR
STARTCHAR J
ENCODING 74
SWIDTH 484 0
DWIDTH 8 0
BBX 8 13 0 -1
BITMAP
0010
0055
0044
0044
0094
0044
5044
4494
4244
2484
1414
0564
0140
ENDCHAR
STARTCHAR K
ENCODING 75
SWIDTH 541 0
DWIDTH 9 0
BBX 9 12 0 0
BITMAP
040000
150500
111440
115140
555500
520400
111400
564400
429500
515100
411140
551500
ENDCHAR
STARTCHAR L
ENCODING 76
SWIDTH 467 0
DWIDTH 7 0
BBX 8 12 0 0
BITMAP
0400
1500
1100
1100
5500
5100
1100
5500
4100
5295
4141
5655
ENDCHAR
STARTCHAR M
ENCODING 77
SWIDTH 733 0
DWIDTH 12 0
BBX 12 11 0 0
BITMAP
154250
108124
115414
251954
115454
121484
554984
419595
444511
445211
581525
ENDCHAR
STARTCHAR N
ENCODING 78
SWIDTH 598 0
DWIDTH 10 0
BBX 9 12 0 0
BITMAP
040100
164980
114440
114440
565940
511440
120840
565540
518540
515140
411180
551A40
ENDCHAR
STARTCHAR O
ENCODING 79
SWIDTH 612 0
DWIDTH 10 0
BBX 10 13 0 -1
BITMAP
040000
115640
104180
165640
250940
110440
110440
550550
410540
46A590
451050
255680
140000
ENDCHAR
STARTCHAR P
ENCODING 80
SWIDTH 513 0
DWIDTH 8 0
BBX 9 12 0 0
BITMAP
050000
215000
201500
164040
552600
428200
124400
511000
564000
510000
410000
550000
ENDCHAR
STARTCHAR Q
ENCODING 81
SWIDTH 612 0
DWIDTH 10 0
BBX 10 15 0 -3
BITMAP
040000
115640
104180
165640
250940
110440
110440
550550
410540
46A590
451050
255680
150400
015400
004000
ENDCHAR
STARTCHAR R
ENCODING 82
SWIDTH 532 0
DWIDTH 9 0
BBX 9 13 0 -1
BITMAP
050000
215000
201500
164040
556500
424200
129800
524400
568500
511100
411040
510540
140000
ENDCHAR
STARTCHAR S
ENCODING 83
SWIDTH 442 0
DWIDTH 7 0
BBX 7 12 0 0
BITMAP
0014
6A44
5514
4250
1100
1440
0440
0550
0210
5644
4144
5550
ENDCHAR
STARTCHAR T
ENCODING 84
SWIDTH 453 0
DWIDTH 7 0
BBX 8 12 0 0
BITMAP
0104
5555
4101
5994
0540
0840
0440
0440
0940
0440
0440
0540
ENDCHAR
STARTCHAR U
ENCODING 85
SWIDTH 583 0
DWIDTH 9 0
BBX 9 12 0 -1
BITMAP
251540
111040
111440
251540
111040
110440
550940
410940
469540
454180
255A40
140000
ENDCHAR
STARTCHAR V
ENCODING 86
SWIDTH 506 0
DWIDTH 8 0
BBX 8 12 0 -1
BITMAP
5415
4411
4411
5555
5141
1144
1194
1544
0504
0510
0590
0100
ENDCHAR
STARTCHAR W
ENCODING 87
SWIDTH 735 0
DWIDTH 12 0
BBX 12 12 0 -1
BITMAP
540055
445541
445144
559594
516144
115144
115A44
151554
051510
051510
065110
010040
ENDCHAR
STARTCHAR X
ENCODING 88
SWIDTH 483 0
DWIDTH 8 0
BBX 8 11 0 0
BITMAP
1414
4441
5144
1644
1910
0850
1890
1144
4145
4441
5414
ENDCHAR
STARTCHAR Y
ENCODING 89
SWIDTH 484 0
DWIDTH 8 0
BBX 9 11 -1 0
BITMAP
140540
510440
105040
056500
045100
014400
019400
010400
011000
041000
015000
ENDCHAR
STARTCHAR Z
ENCODING 90
SWIDTH 458 0
DWIDTH 7 0
BBX 8 11 0 0
BITMAP
1654
4109
1558
0244
0410
0440
1440
1140
4254
4504
6954
ENDCHAR
STARTCHAR bracketleft
ENCODING 91
SWIDTH 420 0
DWIDTH 7 0
BBX 7 14 0 -1
BITMAP
0010
1554
5504
4250
5100
5500
4100
4100
5100
5500
4100
4254
5504
1954
ENDCHAR
STARTCHAR backslash
ENCODING 92
SWIDTH 453 0
DWIDTH 7 0
BBX 7 11 0 0
BITMAP
1800
4100
1100
1540
1040
0440
0460
0110
0104
0044
0054
ENDCHAR
STARTCHAR bracketright
ENCODING 93
SWIDTH 420 0
DWIDTH 7 0
BBX 7 14 0 -1
BITMAP
1000
5540
4160
1610
0110
0160
0110
0110
0110
0150
0110
5610
4154
5580
ENDCHAR
STARTCHAR asciicircum
ENCODING 94
SWIDTH 353 0
DWIDTH 6 0
BBX 6 5 0 6
BITMAP
0500
1200
1540
4550
1140
ENDCHAR
STARTCHAR underscore
ENCODING 95
SWIDTH 499 0
DWIDTH 8 0
BBX 8 3 0 -4
BITMAP
1594
4041
1554
ENDCHAR
STARTCHAR grave
ENCODING 96
SWIDTH 183 0
DWIDTH 3 0
BBX 3 4 0 12
BITMAP
50
44
44
14
ENDCHAR
STARTCHAR a
ENCODING 97
SWIDTH 507 0
DWIDTH 8 0
BBX 9 11 0 0
BITMAP
094000
046000
145000
254400
119400
114500
669540
414040
455600
451100
541500
ENDCHAR
STARTCHAR b
ENCODING 98
SWIDTH 533 0
DWIDTH 9 0
BBX 9 13 0 -1
BITMAP
050000
206000
241540
125040
555600
524500
115400
564100
419100
564540
605500
615000
040000
ENDCHAR
STARTCHAR c
ENCODING 99
SWIDTH 515 0
DWIDTH 8 0
BBX 9 13 0 -1
BITMAP
040000
116500
104100
165600
250000
110000
110000
550000
410100
469500
454140
255500
140000
ENDCHAR
STARTCHAR d
ENCODING 100
SWIDTH 520 0
DWIDTH 8 0
BBX 9 13 0 -1
BITMAP
050000
244000
241000
151400
564100
515040
111540
555140
425500
511400
415000
564000
010000
ENDCHAR
STARTCHAR e
ENCODING 101
SWIDTH 490 0
DWIDTH 8 0
BBX 8 12 0 0
BITMAP
0400
1695
1141
1255
5500
5250
1104
5650
4100
5295
4141
5555
ENDCHAR
STARTCHAR f
ENCODING 102
SWIDTH 475 0
DWIDTH 8 0
BBX 8 12 0 0
BITMAP
0400
1695
1141
1255
5500
5250
1104
5650
4100
5100
4100
5500
ENDCHAR
STARTCHAR g
ENCODING 103
SWIDTH 557 0
DWIDTH 9 0
BBX 9 13 0 -1
BITMAP
040000
116500
104100
165600
250000
110500
111040
550440
411540
469440
454440
255540
140000
ENDCHAR
STARTCHAR h
ENCODING 104
SWIDTH 611 0
DWIDTH 10 0
BBX 10 12 0 0
BITMAP
040100
150480
110440
110440
550940
510440
110950
565410
414550
525440
411440
551540
ENDCHAR
STARTCHAR i
ENCODING 105
SWIDTH 266 0
DWIDTH 4 0
BBX 4 12 0 0
BITMAP
04
15
11
11
55
51
11
55
41
51
41
55
ENDCHAR
STARTCHAR j
ENCODING 106
SWIDTH 482 0
DWIDTH 8 0
BBX 8 13 0 -1
BITMAP
0010
0055
0044
0044
0094
0044
5044
4494
4244
2484
1414
0564
0140
ENDCHAR
STARTCHAR k
ENCODING 107
SWIDTH 541 0
DWIDTH 9 0
BBX 9 12 0 0
BITMAP
040000
150500
111440
115140
555500
520400
111400
564400
429500
515100
411140
551500
ENDCHAR
STARTCHAR l
ENCODING 108
SWIDTH 467 0
DWIDTH 7 0
BBX 8 12 0 0
BITMAP
0400
1500
1100
1100
5500
5100
1100
5500
4100
5295
4141
5655
ENDCHAR
STARTCHAR m
ENCODING 109
SWIDTH 733 0
DWIDTH 12 0
BBX 12 11 0 0
BITMAP
154250
108124
115414
251954
115454
121484
554984
419595
444511
445211
581525
ENDCHAR
STARTCHAR n
ENCODING 110
SWIDTH 598 0
DWIDTH 10 0
BBX 9 12 0 0
BITMAP
040100
164980
114440
114440
565940
511440
120840
565540
518540
515140
411180
551A40
ENDCHAR
STARTCHAR o
ENCODING 111
SWIDTH 612 0
DWIDTH 10 0
BBX 10 13 0 -1
BITMAP
040000
115640
104180
165640
250940
110440
110440
550550
410540
46A590
451050
255680
140000
ENDCHAR
STARTCHAR p
ENCODING 112
SWIDTH 513 0
DWIDTH 8 0
BBX 9 12 0 0
BITMAP
050000
215000
201500
164040
552600
428200
124400
511000
564000
510000
410000
550000
ENDCHAR
STARTCHAR q
ENCODING 113
SWIDTH 612 0
DWIDTH 10 0
BBX 10 15 0 -3
BITMAP
040000
115640
104180
165640
250940
110440
110440
550550
410540
46A590
451050
255680
150400
015400
004000
ENDCHAR
STARTCHAR r
ENCODING 114
SWIDTH 532 0
DWIDTH 9 0
BBX 9 13 0 -1
BITMAP
050000
215000
201500
164040
556500
424200
129800
524400
568500
511100
411040
510540
140000
ENDCHAR
STARTCHAR s
ENCODING 115
SWIDTH 442 0
DWIDTH 7 0
BBX 7 12 0 0
BITMAP
0014
6A44
5514
4250
1100
1440
0440
0550
0210
5644
4144
5550
ENDCHAR
STARTCHAR t
ENCODING 116
SWIDTH 453 0
DWIDTH 7 0
BBX 8 12 0 0
BITMAP
0104
5555
4101
5994
0540
0840
0440
0440
0940
0440
0440
0540
ENDCHAR
STARTCHAR u
ENCODING 117
SWIDTH 583 0
DWIDTH 9 0
BBX 9 12 0 -1
BITMAP
251540
111040
111440
251540
111040
110440
550940
410940
469540
454180
255A40
140000
ENDCHAR
STARTCHAR v
ENCODING 118
SWIDTH 506 0
DWIDTH 8 0
BBX 8 12 0 -1
BITMAP
5415
4411
4411
5555
5141
1144
1194
1544
0504
0510
0590
0100
ENDCHAR
STARTCHAR w
ENCODING 119
SWIDTH 735 0
DWIDTH 12 0
BBX 12 12 0 -1
BITMAP
540055
445541
445144
559594
516144
115144
115A44
151554
051510
051510
065110
010040
ENDCHAR
STARTCHAR x
ENCODING 120
SWIDTH 483 0
DWIDTH 8 0
BBX 8 11 0 0
BITMAP
1414
4441
5144
1644
1910
0850
1890
1144
4145
4441
5414
ENDCHAR
STARTCHAR y
ENCODING 121
SWIDTH 484 0
DWIDTH 8 0
BBX 9 11 -1 0
BITMAP
140540
510440
105040
056500
045100
014400
019400
010400
011000
041000
015000
ENDCHAR
STARTCHAR z
ENCODING 122
SWIDTH 458 0
DWIDTH 7 0
BBX 8 11 0 0
BITMAP
1654
4109
1558
0244
0410
0440
1440
1140
4254
4504
6954
ENDCHAR
STARTCHAR braceleft
ENCODING 123
SWIDTH 473 0
DWIDTH 8 0
BBX 8 13 0 -1
BITMAP
0555
1441
0454
0550
0510
5550
4060
5650
0950
0440
1094
1141
0654
ENDCHAR
STARTCHAR bar
ENCODING 124
SWIDTH 263 0
DWIDTH 4 0
BBX 4 13 0 -1
BITMAP
15
11
11
51
55
51
11
55
51
51
41
41
14
ENDCHAR
STARTCHAR braceright
ENCODING 125
SWIDTH 473 0
DWIDTH 8 0
BBX 8 13 0 -1
BITMAP
5550
4110
1810
0590
0444
1555
0801
1594
0590
0510
5510
4110
5580
ENDCHAR
STARTCHAR asciitilde
ENCODING 126
SWIDTH 456 0
DWIDTH 7 0
BBX 7 4 0 4
BITMAP
1614
1184
4550
5190
ENDCHAR
STARTCHAR nonbreakingspace
ENCODING 160
SWIDTH 200 0
DWIDTH 3 0
BBX 1 1 0 0
BITMAP
00
ENDCHAR
STARTCHAR exclamdown
ENCODING 161
SWIDTH 259 0
DWIDTH 4 0
BBX 4 12 0 -1
BITMAP
15
11
14
15
11
11
41
55
41
41
55
04
ENDCHAR
STARTCHAR cent
ENCODING 162
SWIDTH 480 0
DWIDTH 8 0
BBX 8 15 0 -2
BITMAP
0140
0510
0114
0294
2445
5054
5500
5500
4400
4640
5554
1541
0164
0510
0550
ENDCHAR
STARTCHAR sterling
ENCODING 163
SWIDTH 594 0
DWIDTH 10 0
BBX 9 11 0 0
BITMAP
015000
050600
054100
045500
595400
444400
585400
095000
046580
045040
055540
ENDCHAR
STARTCHAR currency
ENCODING 164
SWIDTH 640 0
DWIDTH 10 0
BBX 10 10 0 1
BITMAP
140040
446510
425510
195180
105550
114810
192180
511150
459510
141440
ENDCHAR
STARTCHAR yen
ENCODING 165
SWIDTH 575 0
DWIDTH 9 0
BBX 9 11 0 0
BITMAP
140500
450440
511040
11A500
084100
1A9900
104100
115500
096100
041000
054000
ENDCHAR
STARTCHAR brokenbar
ENCODING 166
SWIDTH 258 0
DWIDTH 4 0
BBX 4 15 0 -2
BITMAP
14
41
11
55
41
41
55
00
55
51
51
55
41
41
14
ENDCHAR
STARTCHAR section
ENCODING 167
SWIDTH 474 0
DWIDTH 8 0
BBX 7 13 0 -1
BITMAP
0014
5544
5044
4690
5128
1544
1144
5654
5504
1A48
4054
5554
1000
ENDCHAR
STARTCHAR dieresis
ENCODING 168
SWIDTH 351 0
DWIDTH 6 0
BBX 6 3 0 12
BITMAP
5540
4510
5550
ENDCHAR
STARTCHAR copyright
ENCODING 169
SWIDTH 719 0
DWIDTH 12 0
BBX 11 12 0 0
BITMAP
155550
104158
555584
145544
544154
44A544
445044
546554
44A544
444444
455554
295550
ENDCHAR
STARTCHAR ordfeminine
ENCODING 170
SWIDTH 455 0
DWIDTH 7 0
BBX 8 11 0 0
BITMAP
0A50
1510
1110
2514
4644
5544
5585
5454
1550
1014
1550
ENDCHAR
STARTCHAR guillemotleft
ENCODING 171
SWIDTH 689 0
DWIDTH 11 0
BBX 11 7 0 2
BITMAP
054054
145504
415050
551940
515410
044104
014050
ENDCHAR
STARTCHAR logicalnot
ENCODING 172
SWIDTH 591 0
DWIDTH 9 0
BBX 9 7 0 0
BITMAP
155500
404540
455440
104440
000440
000440
000140
ENDCHAR
STARTCHAR uni00AD
ENCODING 173
SWIDTH 465 0
DWIDTH 7 0
BBX 7 3 0 4
BITMAP
5554
4044
5554
ENDCHAR
STARTCHAR registered
ENCODING 174
SWIDTH 719 0
DWIDTH 12 0
BBX 11 12 0 0
BITMAP
155550
104158
555584
140044
549554
446544
445044
545054
445044
444444
455554
295550
ENDCHAR
STARTCHAR macron
ENCODING 175
SWIDTH 263 0
DWIDTH 4 0
BBX 4 2 0 12
BITMAP
55
55
ENDCHAR
STARTCHAR degree
ENCODING 176
SWIDTH 333 0
DWIDTH 5 0
BBX 5 5 0 6
BITMAP
1500
1540
4940
5580
5540
ENDCHAR
STARTCHAR plusminus
ENCODING 177
SWIDTH 464 0
DWIDTH 7 0
BBX 7 11 0 -2
BITMAP
0140
0440
5994
4044
5554
1440
0580
0100
5598
4044
5554
ENDCHAR
STARTCHAR twosuperior
ENCODING 178
SWIDTH 324 0
DWIDTH 5 0
BBX 5 6 0 5
BITMAP
5540
5540
1500
1100
4540
6540
ENDCHAR
STARTCHAR threesuperior
ENCODING 179
SWIDTH 332 0
DWIDTH 5 0
BBX 5 7 0 4
BITMAP
5540
5580
1540
1440
5440
4640
1000
ENDCHAR
STARTCHAR acute
ENCODING 180
SWIDTH 202 0
DWIDTH 3 0
BBX 3 4 0 12
BITMAP
14
14
44
50
ENDCHAR
STARTCHAR mu
ENCODING 181
SWIDTH 582 0
DWIDTH 9 0
BBX 9 13 0 -2
BITMAP
151540
111140
111040
111540
251040
111440
111440
110940
569540
114140
525A40
410100
550000
ENDCHAR
STARTCHAR paragraph
ENCODING 182
SWIDTH 556 0
DWIDTH 9 0
BBX 8 13 0 -1
BITMAP
0014
0146
5506
4165
5625
5191
1561
0111
0065
0011
0011
0021
0004
ENDCHAR
STARTCHAR periodcentered
ENCODING 183
SWIDTH 215 0
DWIDTH 3 0
BBX 3 3 0 4
BITMAP
58
44
14
ENDCHAR
STARTCHAR cedilla
ENCODING 184
SWIDTH 237 0
DWIDTH 4 0
BBX 4 6 0 -4
BITMAP
04
05
05
55
45
50
ENDCHAR
STARTCHAR onesuperior
ENCODING 185
SWIDTH 286 0
DWIDTH 5 0
BBX 4 6 0 5
BITMAP
15
41
45
15
05
05
ENDCHAR
STARTCHAR ordmasculine
ENCODING 186
SWIDTH 476 0
DWIDTH 8 0
BBX 8 11 0 0
BITMAP
5598
4058
5581
4444
4444
4598
5444
1554
1550
1004
1550
ENDCHAR
STARTCHAR guillemotright
ENCODING 187
SWIDTH 689 0
DWIDTH 11 0
BBX 11 7 0 2
BITMAP
540540
415450
141504
055154
105514
410440
140500
ENDCHAR
STARTCHAR onequarter
ENCODING 188
SWIDTH 790 0
DWIDTH 13 0
BBX 12 11 0 0
BITMAP
050500
514100
445100
146500
045100
055415
005445
004515
004552
004555
005005
ENDCHAR
STARTCHAR onehalf
ENCODING 189
SWIDTH 771 0
DWIDTH 12 0
BBX 12 11 0 0
BITMAP
050500
514100
445100
146500
045100
055555
005511
004455
004444
004515
0050A5
ENDCHAR
STARTCHAR threequarters
ENCODING 190
SWIDTH 817 0
DWIDTH 13 0
BBX 13 11 0 0
BITMAP
55454000
55844000
15444000
14550000
54510000
46510500
10211540
00154940
00445140
00445540
00140540
ENDCHAR
STARTCHAR questiondown
ENCODING 191
SWIDTH 455 0
DWIDTH 7 0
BBX 7 12 0 0
BITMAP
0040
0150
0110
0040
0150
0110
0550
5050
9640
4154
5504
0154
ENDCHAR
STARTCHAR Agrave
ENCODING 192
SWIDTH 507 0
DWIDTH 8 0
BBX 9 16 0 0
BITMAP
050000
044000
044000
014000
000000
094000
046000
145000
254400
119400
114500
669540
414040
455600
451100
541500
ENDCHAR
STARTCHAR Aacute
ENCODING 193
SWIDTH 507 0
DWIDTH 8 0
BBX 9 16 0 0
BITMAP
001000
005400
005400
005000
000000
094000
046000
145000
254400
119400
114500
669540
414040
455600
451100
541500
ENDCHAR
STARTCHAR Acircumflex
ENCODING 194
SWIDTH 507 0
DWIDTH 8 0
BBX 9 16 0 0
BITMAP
019000
045000
054400
055400
000000
094000
046000
145000
254400
119400
114500
669540
414040
455600
451100
541500
ENDCHAR
STARTCHAR Atilde
ENCODING 195
SWIDTH 507 0
DWIDTH 8 0
BBX 9 16 0 0
BITMAP
055500
055100
121400
146400
000000
094000
046000
145000
254400
119400
114500
669540
414040
455600
451100
541500
ENDCHAR
STARTCHAR Adieresis
ENCODING 196
SWIDTH 507 0
DWIDTH 8 0
BBX 9 15 0 0
BITMAP
051400
114400
155400
000000
094000
046000
145000
254400
119400
114500
669540
414040
455600
451100
541500
ENDCHAR
STARTCHAR Aring
ENCODING 197
SWIDTH 507 0
DWIDTH 8 0
BBX 9 16 0 0
BITMAP
015000
045000
058400
095400
055000
094000
046000
145000
254400
119400
114500
669540
414040
455600
451100
541500
ENDCHAR
STARTCHAR AE
ENCODING 198
SWIDTH 797 0
DWIDTH 13 0
BBX 14 12 -1 0
BITMAP
00004000
00196950
00511410
00452550
01495000
01182600
05151140
09196600
14841000
11982950
51041410
15055540
ENDCHAR
STARTCHAR Ccedilla
ENCODING 199
SWIDTH 515 0
DWIDTH 8 0
BBX 9 16 0 -4
BITMAP
040000
116500
104100
165600
250000
110000
110000
550000
410100
469500
454140
256500
145000
05A000
045000
010000
ENDCHAR
STARTCHAR Egrave
ENCODING 200
SWIDTH 490 0
DWIDTH 8 0
BBX 8 16 0 0
BITMAP
0100
0440
0140
0140
0400
1695
1141
1255
5500
5250
1104
5650
4100
5295
4141
5555
ENDCHAR
STARTCHAR Eacute
ENCODING 201
SWIDTH 490 0
DWIDTH 8 0
BBX 8 16 0 0
BITMAP
0010
0044
0110
0140
0400
1695
1141
1255
5500
5250
1104
5650
4100
5295
4141
5555
ENDCHAR
STARTCHAR Ecircumflex
ENCODING 202
SWIDTH 490 0
DWIDTH 8 0
BBX 8 16 0 0
BITMAP
0180
0450
1544
0554
0400
1695
1141
1255
5500
5250
1104
5650
4100
5295
4141
5555
ENDCHAR
STARTCHAR Edieresis
ENCODING 203
SWIDTH 490 0
DWIDTH 8 0
BBX 8 15 0 0
BITMAP
0514
1144
1554
0400
1695
1141
1255
5500
5250
1104
5650
4100
5295
4141
5555
ENDCHAR
STARTCHAR Igrave
ENCODING 204
SWIDTH 266 0
DWIDTH 4 0
BBX 4 16 0 0
BITMAP
50
54
44
14
04
15
11
11
55
51
11
55
41
51
41
55
ENDCHAR
STARTCHAR Iacute
ENCODING 205
SWIDTH 266 0
DWIDTH 4 0
BBX 5 16 0 0
BITMAP
0100
0440
0540
1500
0400
1500
1100
1100
5500
5100
1100
5500
4100
5100
4100
5500
ENDCHAR
STARTCHAR Icircumflex
ENCODING 206
SWIDTH 266 0
DWIDTH 4 0
BBX 5 16 0 0
BITMAP
1900
5500
5840
5140
0400
1500
1100
1100
5500
5100
1100
5500
4100
5100
4100
5500
ENDCHAR
STARTCHAR Idieresis
ENCODING 207
SWIDTH 266 0
DWIDTH 4 0
BBX 6 15 -1 0
BITMAP
1450
4510
1550
0100
0540
0440
0440
1540
1440
0440
1540
1040
1440
1040
1540
ENDCHAR
STARTCHAR Eth
ENCODING 208
SWIDTH 669 0
DWIDTH 11 0
BBX 12 13 -1 -1
BITMAP
001500
00A100
006050
004820
009544
155441
501426
15A545
004544
004410
004440
005900
000400
ENDCHAR
STARTCHAR Ntilde
ENCODING 209
SWIDTH 598 0
DWIDTH 10 0
BBX 9 16 0 0
BITMAP
015540
015440
048500
051900
040100
164980
114440
114440
565940
511440
120840
565540
518540
515140
411180
551A40
ENDCHAR
STARTCHAR Ograve
ENCODING 210
SWIDTH 612 0
DWIDTH 10 0
BBX 10 17 0 -1
BITMAP
005000
011000
005000
005000
040000
115640
104180
165640
250940
110440
110440
550550
410540
46A590
451050
255680
140000
ENDCHAR
STARTCHAR Oacute
ENCODING 211
SWIDTH 612 0
DWIDTH 10 0
BBX 10 17 0 -1
BITMAP
000400
001100
001400
005400
040000
115640
104180
165640
250940
110440
110440
550550
410540
46A590
451050
255680
140000
ENDCHAR
STARTCHAR Ocircumflex
ENCODING 212
SWIDTH 612 0
DWIDTH 10 0
BBX 10 17 0 -1
BITMAP
006400
011400
015100
015500
040000
115640
104180
165640
250940
110440
110440
550550
410540
46A590
451050
255680
140000
ENDCHAR
STARTCHAR Otilde
ENCODING 213
SWIDTH 612 0
DWIDTH 10 0
BBX 10 17 0 -1
BITMAP
016540
011840
049500
051900
040000
115640
104180
165640
250940
110440
110440
550550
410540
46A590
451050
255680
140000
ENDCHAR
STARTCHAR Odieresis
ENCODING 214
SWIDTH 612 0
DWIDTH 10 0
BBX 10 16 0 -1
BITMAP
055400
045100
055500
040000
115640
104180
165640
250940
110440
110440
550550
410540
46A590
451050
255680
140000
ENDCHAR
STARTCHAR multiply
ENCODING 215
SWIDTH 421 0
DWIDTH 7 0
BBX 7 6 0 2
BITMAP
1550
4244
1190
5510
4610
1450
ENDCHAR
STARTCHAR Oslash
ENCODING 216
SWIDTH 612 0
DWIDTH 10 0
BBX 10 13 0 -1
BITMAP
040000
116940
104440
166080
256240
114540
124840
561550
445540
446590
511050
115680
150000
ENDCHAR
STARTCHAR Ugrave
ENCODING 217
SWIDTH 583 0
DWIDTH 9 0
BBX 9 17 0 -1
BITMAP
014000
014000
011000
005000
000000
251540
111040
111440
251540
111040
110440
550940
410940
469540
454180
255A40
140000
ENDCHAR
STARTCHAR Uacute
ENCODING 218
SWIDTH 583 0
DWIDTH 9 0
BBX 9 17 0 -1
BITMAP
001000
001400
005400
005000
000000
251540
111040
111440
251540
111040
110440
550940
410940
469540
454180
255A40
140000
ENDCHAR
STARTCHAR Ucircumflex
ENCODING 219
SWIDTH 583 0
DWIDTH 9 0
BBX 9 17 0 -1
BITMAP
016000
015000
048400
051400
000000
251540
111040
111440
251540
111040
110440
550940
410940
469540
454180
255A40
140000
ENDCHAR
STARTCHAR Udieresis
ENCODING 220
SWIDTH 583 0
DWIDTH 9 0
BBX 9 16 0 -1
BITMAP
051400
045500
051400
000000
251540
111040
111440
251540
111040
110440
550940
410940
469540
454180
255A40
140000
ENDCHAR
STARTCHAR Yacute
ENCODING 221
SWIDTH 484 0
DWIDTH 8 0
BBX 9 15 -1 0
BITMAP
001400
001500
004400
005000
140540
510440
105040
056500
045100
014400
019400
010400
011000
041000
015000
ENDCHAR
STARTCHAR Thorn
ENCODING 222
SWIDTH 520 0
DWIDTH 8 0
BBX 9 11 0 0
BITMAP
150000
160000
206400
641540
425040
111600
528100
551400
515000
420000
550000
ENDCHAR
STARTCHAR germandbls
ENCODING 223
SWIDTH 884 0
DWIDTH 14 0
BBX 14 12 0 0
BITMAP
00140050
6A44A910
55155450
42510940
11004400
14405100
04401140
05501540
02100850
56455910
41450510
55515540
ENDCHAR
STARTCHAR agrave
ENCODING 224
SWIDTH 507 0
DWIDTH 8 0
BBX 9 16 0 0
BITMAP
050000
044000
044000
014000
000000
094000
046000
145000
254400
119400
114500
669540
414040
455600
451100
541500
ENDCHAR
STARTCHAR aacute
ENCODING 225
SWIDTH 507 0
DWIDTH 8 0
BBX 9 16 0 0
BITMAP
001000
005400
005400
005000
000000
094000
046000
145000
254400
119400
114500
669540
414040
455600
451100
541500
ENDCHAR
STARTCHAR acircumflex
ENCODING 226
SWIDTH 507 0
DWIDTH 8 0
BBX 9 16 0 0
BITMAP
019000
045000
054400
055400
000000
094000
046000
145000
254400
119400
114500
669540
414040
455600
451100
541500
ENDCHAR
STARTCHAR atilde
ENCODING 227
SWIDTH 507 0
DWIDTH 8 0
BBX 9 16 0 0
BITMAP
055500
055100
121400
146400
000000
094000
046000
145000
254400
119400
114500
669540
414040
455600
451100
541500
ENDCHAR
STARTCHAR adieresis
ENCODING 228
SWIDTH 507 0
DWIDTH 8 0
BBX 9 15 0 0
BITMAP
051400
114400
155400
000000
094000
046000
145000
254400
119400
114500
669540
414040
455600
451100
541500
ENDCHAR
STARTCHAR aring
ENCODING 229
SWIDTH 507 0
DWIDTH 8 0
BBX 9 16 0 0
BITMAP
015000
045000
058400
095400
055000
094000
046000
145000
254400
119400
114500
669540
414040
455600
451100
541500
ENDCHAR
STARTCHAR ae
ENCODING 230
SWIDTH 797 0
DWIDTH 13 0
BBX 14 12 -1 0
BITMAP
00004000
00196950
00511410
00452550
01495000
01182600
05151140
09196600
14841000
11982950
51041410
15055540
ENDCHAR
STARTCHAR ccedilla
ENCODING 231
SWIDTH 515 0
DWIDTH 8 0
BBX 9 16 0 -4
BITMAP
040000
116500
104100
165600
250000
110000
110000
550000
410100
469500
454140
256500
145000
05A000
045000
010000
ENDCHAR
STARTCHAR egrave
ENCODING 232
SWIDTH 490 0
DWIDTH 8 0
BBX 8 16 0 0
BITMAP
0100
0440
0140
0140
0400
1695
1141
1255
5500
5250
1104
5650
4100
5295
4141
5555
ENDCHAR
STARTCHAR eacute
ENCODING 233
SWIDTH 490 0
DWIDTH 8 0
BBX 8 16 0 0
BITMAP
0010
0044
0110
0140
0400
1695
1141
1255
5500
5250
1104
5650
4100
5295
4141
5555
ENDCHAR
STARTCHAR ecircumflex
ENCODING 234
SWIDTH 490 0
DWIDTH 8 0
BBX 8 16 0 0
BITMAP
0180
0450
1544
0554
0400
1695
1141
1255
5500
5250
1104
5650
4100
5295
4141
5555
ENDCHAR
STARTCHAR edieresis
ENCODING 235
SWIDTH 490 0
DWIDTH 8 0
BBX 8 15 0 0
BITMAP
0514
1144
1554
0400
1695
1141
1255
5500
5250
1104
5650
4100
5295
4141
5555
ENDCHAR
STARTCHAR igrave
ENCODING 236
SWIDTH 266 0
DWIDTH 4 0
BBX 4 16 0 0
BITMAP
50
54
44
14
04
15
11
11
55
51
11
55
41
51
41
55
ENDCHAR
STARTCHAR iacute
ENCODING 237
SWIDTH 266 0
DWIDTH 4 0
BBX 5 16 0 0
BITMAP
0100
0440
0540
1500
0400
1500
1100
1100
5500
5100
1100
5500
4100
5100
4100
5500
ENDCHAR
STARTCHAR icircumflex
ENCODING 238
SWIDTH 266 0
DWIDTH 4 0
BBX 5 16 0 0
BITMAP
1900
5500
5840
5140
0400
1500
1100
1100
5500
5100
1100
5500
4100
5100
4100
5500
ENDCHAR
STARTCHAR idieresis
ENCODING 239
SWIDTH 266 0
DWIDTH 4 0
BBX 6 15 -1 0
BITMAP
1450
4510
1550
0100
0540
0440
0440
1540
1440
0440
1540
1040
1440
1040
1540
ENDCHAR
STARTCHAR eth
ENCODING 240
SWIDTH 669 0
DWIDTH 11 0
BBX 12 13 -1 -1
BITMAP
001500
00A100
006050
004820
009544
155441
501426
15A545
004544
004410
004440
005900
000400
ENDCHAR
STARTCHAR ntilde
ENCODING 241
SWIDTH 598 0
DWIDTH 10 0
BBX 9 16 0 0
BITMAP
015540
015440
048500
051900
040100
164980
114440
114440
565940
511440
120840
565540
518540
515140
411180
551A40
ENDCHAR
STARTCHAR ograve
ENCODING 242
SWIDTH 612 0
DWIDTH 10 0
BBX 10 17 0 -1
BITMAP
005000
011000
005000
005000
040000
115640
104180
165640
250940
110440
110440
550550
410540
46A590
451050
255680
140000
ENDCHAR
STARTCHAR oacute
ENCODING 243
SWIDTH 612 0
DWIDTH 10 0
BBX 10 17 0 -1
BITMAP
000400
001100
001400
005400
040000
115640
104180
165640
250940
110440
110440
550550
410540
46A590
451050
255680
140000
ENDCHAR
STARTCHAR ocircumflex
ENCODING 244
SWIDTH 612 0
DWIDTH 10 0
BBX 10 17 0 -1
BITMAP
006400
011400
015100
015500
040000
115640
104180
165640
250940
110440
110440
550550
410540
46A590
451050
255680
140000
ENDCHAR
STARTCHAR otilde
ENCODING 245
SWIDTH 612 0
DWIDTH 10 0
BBX 10 17 0 -1
BITMAP
016540
011840
049500
051900
040000
115640
104180
165640
250940
110440
110440
550550
410540
46A590
451050
255680
140000
ENDCHAR
STARTCHAR odieresis
ENCODING 246
SWIDTH 612 0
DWIDTH 10 0
BBX 10 16 0 -1
BITMAP
055400
045100
055500
040000
115640
104180
165640
250940
110440
110440
550550
410540
46A590
451050
255680
140000
ENDCHAR
STARTCHAR divide
ENCODING 247
SWIDTH 457 0
DWIDTH 7 0
BBX 7 9 0 1
BITMAP
0540
0440
0540
5554
4144
5554
0140
0440
0540
ENDCHAR
STARTCHAR oslash
ENCODING 248
SWIDTH 612 0
DWIDTH 10 0
BBX 10 13 0 -1
BITMAP
040000
116940
104440
166080
256240
114540
124840
561550
445540
446590
511050
115680
150000
ENDCHAR
STARTCHAR ugrave
ENCODING 249
SWIDTH 583 0
DWIDTH 9 0
BBX 9 17 0 -1
BITMAP
014000
014000
011000
005000
000000
251540
111040
111440
251540
111040
110440
550940
410940
469540
454180
255A40
140000
ENDCHAR
STARTCHAR uacute
ENCODING 250
SWIDTH 583 0
DWIDTH 9 0
BBX 9 17 0 -1
BITMAP
001000
001400
005400
005000
000000
251540
111040
111440
251540
111040
110440
550940
410940
469540
454180
255A40
140000
ENDCHAR
STARTCHAR ucircumflex
ENCODING 251
SWIDTH 583 0
DWIDTH 9 0
BBX 9 17 0 -1
BITMAP
016000
015000
048400
051400
000000
251540
111040
111440
251540
111040
110440
550940
410940
469540
454180
255A40
140000
ENDCHAR
STARTCHAR udieresis
ENCODING 252
SWIDTH 583 0
DWIDTH 9 0
BBX 9 16 0 -1
BITMAP
051400
045500
051400
000000
251540
111040
111440
251540
111040
110440
550940
410940
469540
454180
255A40
140000
ENDCHAR
STARTCHAR yacute
ENCODING 253
SWIDTH 484 0
DWIDTH 8 0
BBX 9 15 -1 0
BITMAP
001400
001500
004400
005000
140540
510440
105040
056500
045100
014400
019400
010400
011000
041000
015000
ENDCHAR
STARTCHAR thorn
ENCODING 254
SWIDTH 520 0
DWIDTH 8 0
BBX 9 11 0 0
BITMAP
150000
160000
206400
641540
425040
111600
528100
551400
515000
420000
550000
ENDCHAR
STARTCHAR ydieresis
ENCODING 255
SWIDTH 484 0
DWIDTH 8 0
BBX 9 14 -1 0
BITMAP
055400
045100
055500
140540
510440
105040
056500
045100
014400
019400
010400
011000
041000
015000
ENDCHAR
STARTCHAR Amacron
ENCODING 256
SWIDTH 507 0
DWIDTH 8 0
BBX 9 14 0 0
BITMAP
055000
055000
000000
094000
046000
145000
254400
119400
114500
669540
414040
455600
451100
541500
ENDCHAR
STARTCHAR amacron
ENCODING 257
SWIDTH 507 0
DWIDTH 8 0
BBX 9 14 0 0
BITMAP
055000
055000
000000
094000
046000
145000
254400
119400
114500
669540
414040
455600
451100
541500
ENDCHAR
STARTCHAR Abreve
ENCODING 258
SWIDTH 507 0
DWIDTH 8 0
BBX 9 16 0 0
BITMAP
155400
114400
056000
066000
000000
094000
046000
145000
254400
119400
114500
669540
414040
455600
451100
541500
ENDCHAR
STARTCHAR abreve
ENCODING 259
SWIDTH 507 0
DWIDTH 8 0
BBX 9 16 0 0
BITMAP
155400
114400
056000
066000
000000
094000
046000
145000
254400
119400
114500
669540
414040
455600
451100
541500
ENDCHAR
STARTCHAR Aogonek
ENCODING 260
SWIDTH 507 0
DWIDTH 8 0
BBX 9 15 0 -4
BITMAP
094000
046000
145000
254400
119400
114500
669540
414040
455600
451100
541600
001500
002540
000440
000100
ENDCHAR
STARTCHAR aogonek
ENCODING 261
SWIDTH 507 0
DWIDTH 8 0
BBX 9 15 0 -4
BITMAP
094000
046000
145000
254400
119400
114500
669540
414040
455600
451100
541600
001500
002540
000440
000100
ENDCHAR
STARTCHAR Cacute
ENCODING 262
SWIDTH 515 0
DWIDTH 8 0
BBX 9 17 0 -1
BITMAP
001400
001400
004400
005000
040000
116500
104100
165600
250000
110000
110000
550000
410100
469500
454140
255500
140000
ENDCHAR
STARTCHAR cacute
ENCODING 263
SWIDTH 515 0
DWIDTH 8 0
BBX 9 17 0 -1
BITMAP
001400
001400
004400
005000
040000
116500
104100
165600
250000
110000
110000
550000
410100
469500
454140
255500
140000
ENDCHAR
STARTCHAR Ccircumflex
ENCODING 264
SWIDTH 515 0
DWIDTH 8 0
BBX 9 17 0 -1
BITMAP
006000
011400
055100
015500
040000
116500
104100
165600
250000
110000
110000
550000
410100
469500
454140
255500
140000
ENDCHAR
STARTCHAR ccircumflex
ENCODING 265
SWIDTH 515 0
DWIDTH 8 0
BBX 9 17 0 -1
BITMAP
006000
011400
055100
015500
040000
116500
104100
165600
250000
110000
110000
550000
410100
469500
454140
255500
140000
ENDCHAR
STARTCHAR Cdotaccent
ENCODING 266
SWIDTH 515 0
DWIDTH 8 0
BBX 9 16 0 -1
BITMAP
005000
011000
005000
040000
116500
104100
165600
250000
110000
110000
550000
410100
469500
454140
255500
140000
ENDCHAR
STARTCHAR cdotaccent
ENCODING 267
SWIDTH 515 0
DWIDTH 8 0
BBX 9 16 0 -1
BITMAP
005000
011000
005000
040000
116500
104100
165600
250000
110000
110000
550000
410100
469500
454140
255500
140000
ENDCHAR
STARTCHAR Ccaron
ENCODING 268
SWIDTH 515 0
DWIDTH 8 0
BBX 9 17 0 -1
BITMAP
055500
015500
011400
006000
040000
116500
104100
165600
250000
110000
110000
550000
410100
469500
454140
255500
140000
ENDCHAR
STARTCHAR ccaron
ENCODING 269
SWIDTH 515 0
DWIDTH 8 0
BBX 9 17 0 -1
BITMAP
055500
015500
011400
006000
040000
116500
104100
165600
250000
110000
110000
550000
410100
469500
454140
255500
140000
ENDCHAR
STARTCHAR Dcaron
ENCODING 270
SWIDTH 520 0
DWIDTH 8 0
BBX 9 17 0 -1
BITMAP
155400
055400
045000
018000
050000
244000
241000
151400
564100
515040
111540
555140
425500
511400
415000
564000
010000
ENDCHAR
STARTCHAR dcaron
ENCODING 271
SWIDTH 520 0
DWIDTH 8 0
BBX 9 17 0 -1
BITMAP
155400
055400
045000
018000
050000
244000
241000
151400
564100
515040
111540
555140
425500
511400
415000
564000
010000
ENDCHAR
STARTCHAR Dcroat
ENCODING 272
SWIDTH 669 0
DWIDTH 11 0
BBX 12 13 -1 -1
BITMAP
001500
00A100
006050
004820
009544
155441
501426
15A545
004544
004410
004440
005900
000400
ENDCHAR
STARTCHAR dcroat
ENCODING 273
SWIDTH 669 0
DWIDTH 11 0
BBX 12 13 -1 -1
BITMAP
001500
00A100
006050
004820
009544
155441
501426
15A545
004544
004410
004440
005900
000400
ENDCHAR
STARTCHAR Emacron
ENCODING 274
SWIDTH 490 0
DWIDTH 8 0
BBX 8 14 0 0
BITMAP
0550
0550
0400
1695
1141
1255
5500
5250
1104
5650
4100
5295
4141
5555
ENDCHAR
STARTCHAR emacron
ENCODING 275
SWIDTH 490 0
DWIDTH 8 0
BBX 8 14 0 0
BITMAP
0550
0550
0400
1695
1141
1255
5500
5250
1104
5650
4100
5295
4141
5555
ENDCHAR
STARTCHAR Ebreve
ENCODING 276
SWIDTH 490 0
DWIDTH 8 0
BBX 8 16 0 0
BITMAP
0514
0554
0554
0660
0400
1695
1141
1255
5500
5250
1104
5650
4100
5295
4141
5555
ENDCHAR
STARTCHAR ebreve
ENCODING 277
SWIDTH 490 0
DWIDTH 8 0
BBX 8 16 0 0
BITMAP
0514
0554
0554
0660
0400
1695
1141
1255
5500
5250
1104
5650
4100
5295
4141
5555
ENDCHAR
STARTCHAR Edotaccent
ENCODING 278
SWIDTH 490 0
DWIDTH 8 0
BBX 8 15 0 0
BITMAP
0140
0540
0280
0400
1695
1141
1255
5500
5250
1104
5650
4100
5295
4141
5555
ENDCHAR
STARTCHAR edotaccent
ENCODING 279
SWIDTH 490 0
DWIDTH 8 0
BBX 8 15 0 0
BITMAP
0140
0540
0280
0400
1695
1141
1255
5500
5250
1104
5650
4100
5295
4141
5555
ENDCHAR
STARTCHAR Eogonek
ENCODING 280
SWIDTH 490 0
DWIDTH 8 0
BBX 8 16 0 -4
BITMAP
0400
1695
1141
1255
5500
5250
1104
5650
4100
5295
4141
5599
0044
0095
0015
0004
ENDCHAR
STARTCHAR eogonek
ENCODING 281
SWIDTH 490 0
DWIDTH 8 0
BBX 8 16 0 -4
BITMAP
0400
1695
1141
1255
5500
5250
1104
5650
4100
5295
4141
5599
0044
0095
0015
0004
ENDCHAR
STARTCHAR Ecaron
ENCODING 282
SWIDTH 490 0
DWIDTH 8 0
BBX 8 15 0 0
BITMAP
0554
0484
0550
0590
1695
1141
1255
5500
5250
1104
5650
4100
5295
4141
5555
ENDCHAR
STARTCHAR ecaron
ENCODING 283
SWIDTH 490 0
DWIDTH 8 0
BBX 8 15 0 0
BITMAP
0554
0484
0550
0590
1695
1141
1255
5500
5250
1104
5650
4100
5295
4141
5555
ENDCHAR
STARTCHAR Gcircumflex
ENCODING 284
SWIDTH 557 0
DWIDTH 9 0
BBX 9 17 0 -1
BITMAP
016000
011400
045400
055400
040000
116500
104100
165600
250000
110500
111040
550440
411540
469440
454440
255540
140000
ENDCHAR
STARTCHAR gcircumflex
ENCODING 285
SWIDTH 557 0
DWIDTH 9 0
BBX 9 17 0 -1
BITMAP
016000
011400
045400
055400
040000
116500
104100
165600
250000
110500
111040
550440
411540
469440
454440
255540
140000
ENDCHAR
STARTCHAR Gbreve
ENCODING 286
SWIDTH 557 0
DWIDTH 9 0
BBX 9 17 0 -1
BITMAP
051400
045500
049800
065400
040000
116500
104100
165600
250000
110500
111040
550440
411540
469440
454440
255540
140000
ENDCHAR
STARTCHAR gbreve
ENCODING 287
SWIDTH 557 0
DWIDTH 9 0
BBX 9 17 0 -1
BITMAP
051400
045500
049800
065400
040000
116500
104100
165600
250000
110500
111040
550440
411540
469440
454440
255540
140000
ENDCHAR
STARTCHAR Gdotaccent
ENCODING 288
SWIDTH 557 0
DWIDTH 9 0
BBX 9 16 0 -1
BITMAP
005000
015000
009000
040000
116500
104100
165600
250000
110500
111040
550440
411540
469440
454440
255540
140000
ENDCHAR
STARTCHAR gdotaccent
ENCODING 289
SWIDTH 557 0
DWIDTH 9 0
BBX 9 16 0 -1
BITMAP
005000
015000
009000
040000
116500
104100
165600
250000
110500
111040
550440
411540
469440
454440
255540
140000
ENDCHAR
STARTCHAR Gcommaaccent
ENCODING 290
SWIDTH 557 0
DWIDTH 9 0
BBX 9 16 0 -4
BITMAP
040000
116500
104100
165600
250000
110500
111040
550440
411540
469440
454440
255540
144000
011000
014000
054000
ENDCHAR
STARTCHAR gcommaaccent
ENCODING 291
SWIDTH 557 0
DWIDTH 9 0
BBX 9 16 0 -4
BITMAP
040000
116500
104100
165600
250000
110500
111040
550440
411540
469440
454440
255540
144000
011000
014000
054000
ENDCHAR
STARTCHAR Hcircumflex
ENCODING 292
SWIDTH 611 0
DWIDTH 10 0
BBX 10 16 0 0
BITMAP
006000
011400
045500
055400
040100
150480
110440
110440
550940
510440
110950
565410
414550
525440
411440
551540
ENDCHAR
STARTCHAR hcircumflex
ENCODING 293
SWIDTH 611 0
DWIDTH 10 0
BBX 10 16 0 0
BITMAP
006000
011400
045500
055400
040100
150480
110440
110440
550940
510440
110950
565410
414550
525440
411440
551540
ENDCHAR
STARTCHAR Hbar
ENCODING 294
SWIDTH 706 0
DWIDTH 11 0
BBX 12 12 0 0
BITMAP
010040
154520
148210
549554
554105
209664
144254
159504
105154
109510
104410
154550
ENDCHAR
STARTCHAR hbar
ENCODING 295
SWIDTH 706 0
DWIDTH 11 0
BBX 12 12 0 0
BITMAP
010040
154520
148210
549554
554105
209664
144254
159504
105154
109510
104410
154550
ENDCHAR
STARTCHAR Itilde
ENCODING 296
SWIDTH 266 0
DWIDTH 4 0
BBX 7 16 -1 0
BITMAP
1654
1584
4850
5190
0100
0540
0440
0440
1540
1440
0440
1540
1040
1440
1040
1540
ENDCHAR
STARTCHAR itilde
ENCODING 297
SWIDTH 266 0
DWIDTH 4 0
BBX 7 16 -1 0
BITMAP
1654
1584
4850
5190
0100
0540
0440
0440
1540
1440
0440
1540
1040
1440
1040
1540
ENDCHAR
STARTCHAR Imacron
ENCODING 298
SWIDTH 266 0
DWIDTH 4 0
BBX 5 14 0 0
BITMAP
5540
5500
0400
1500
1100
1100
5500
5100
1100
5500
4100
5100
4100
5500
ENDCHAR
STARTCHAR imacron
ENCODING 299
SWIDTH 266 0
DWIDTH 4 0
BBX 5 14 0 0
BITMAP
5540
5500
0400
1500
1100
1100
5500
5100
1100
5500
4100
5100
4100
5500
ENDCHAR
STARTCHAR Ibreve
ENCODING 300
SWIDTH 266 0
DWIDTH 4 0
BBX 5 16 0 0
BITMAP
5140
5140
5640
6600
0400
1500
1100
1100
5500
5100
1100
5500
4100
5100
4100
5500
ENDCHAR
STARTCHAR ibreve
ENCODING 301
SWIDTH 266 0
DWIDTH 4 0
BBX 5 16 0 0
BITMAP
5140
5140
5640
6600
0400
1500
1100
1100
5500
5100
1100
5500
4100
5100
4100
5500
ENDCHAR
STARTCHAR Iogonek
ENCODING 302
SWIDTH 266 0
DWIDTH 4 0
BBX 4 16 0 -4
BITMAP
04
15
11
11
55
51
11
55
41
51
41
55
44
54
21
05
ENDCHAR
STARTCHAR iogonek
ENCODING 303
SWIDTH 266 0
DWIDTH 4 0
BBX 4 16 0 -4
BITMAP
04
15
11
11
55
51
11
55
41
51
41
55
44
54
21
05
ENDCHAR
STARTCHAR Idotaccent
ENCODING 304
SWIDTH 266 0
DWIDTH 4 0
BBX 4 15 0 0
BITMAP
14
11
14
04
15
11
11
55
51
11
55
41
51
41
55
ENDCHAR
STARTCHAR dotlessi
ENCODING 305
SWIDTH 266 0
DWIDTH 4 0
BBX 4 12 0 0
BITMAP
04
15
11
11
55
51
11
55
41
51
41
55
ENDCHAR
STARTCHAR IJ
ENCODING 306
SWIDTH 750 0
DWIDTH 12 0
BBX 12 13 0 -1
BITMAP
040000
150055
110041
110041
550055
510041
115445
554455
415281
511485
410411
550125
000140
ENDCHAR
STARTCHAR ij
ENCODING 307
SWIDTH 749 0
DWIDTH 12 0
BBX 12 13 0 -1
BITMAP
040000
150055
110041
110041
550055
510041
115445
554455
415281
511485
410411
550125
000140
ENDCHAR
STARTCHAR Jcircumflex
ENCODING 308
SWIDTH 484 0
DWIDTH 8 0
BBX 8 17 0 -1
BITMAP
0058
0045
0125
0145
0010
0055
0044
0044
0094
0044
5044
4494
4244
2484
1414
0564
0140
ENDCHAR
STARTCHAR jcircumflex
ENCODING 309
SWIDTH 482 0
DWIDTH 8 0
BBX 8 17 0 -1
BITMAP
0058
0045
0125
0145
0010
0055
0044
0044
0094
0044
5044
4494
4244
2484
1414
0564
0140
ENDCHAR
STARTCHAR Kcommaaccent
ENCODING 310
SWIDTH 541 0
DWIDTH 9 0
BBX 9 16 0 -4
BITMAP
040000
150500
111440
115140
555500
520400
111400
564400
429500
515100
411140
551500
004000
011000
044000
050000
ENDCHAR
STARTCHAR kcommaaccent
ENCODING 311
SWIDTH 541 0
DWIDTH 9 0
BBX 9 16 0 -4
BITMAP
040000
150500
111440
115140
555500
520400
111400
564400
429500
515100
411140
551500
004000
011000
044000
050000
ENDCHAR
STARTCHAR kgreenlandic
ENCODING 312
SWIDTH 541 0
DWIDTH 9 0
BBX 9 12 0 0
BITMAP
040000
150500
111440
115140
555500
520400
111400
564400
429500
515100
411140
551500
ENDCHAR
STARTCHAR Lacute
ENCODING 313
SWIDTH 467 0
DWIDTH 7 0
BBX 8 16 0 0
BITMAP
0140
0140
0440
0500
0400
1500
1100
1100
5500
5100
1100
5500
4100
5295
4141
5655
ENDCHAR
STARTCHAR lacute
ENCODING 314
SWIDTH 467 0
DWIDTH 7 0
BBX 8 16 0 0
BITMAP
0140
0140
0440
0500
0400
1500
1100
1100
5500
5100
1100
5500
4100
5295
4141
5655
ENDCHAR
STARTCHAR Lcommaaccent
ENCODING 315
SWIDTH 467 0
DWIDTH 7 0
BBX 8 16 0 -4
BITMAP
0400
1500
1100
1100
5500
5100
1100
5500
4100
5295
4141
5655
0100
0440
0540
1500
ENDCHAR
STARTCHAR lcommaaccent
ENCODING 316
SWIDTH 467 0
DWIDTH 7 0
BBX 8 16 0 -4
BITMAP
0400
1500
1100
1100
5500
5100
1100
5500
4100
5295
4141
5655
0100
0440
0540
1500
ENDCHAR
STARTCHAR Lcaron
ENCODING 317
SWIDTH 467 0
DWIDTH 7 0
BBX 8 12 0 0
BITMAP
0414
1544
1150
1100
5500
5100
1100
5500
4100
5295
4141
5655
ENDCHAR
STARTCHAR lcaron
ENCODING 318
SWIDTH 467 0
DWIDTH 7 0
BBX 8 12 0 0
BITMAP
0414
1544
1150
1100
5500
5100
1100
5500
4100
5295
4141
5655
ENDCHAR
STARTCHAR Ldot
ENCODING 319
SWIDTH 611 0
DWIDTH 10 0
BBX 10 12 0 0
BITMAP
040000
150000
110000
110000
550000
510150
110150
550140
410000
529500
414100
565500
ENDCHAR
STARTCHAR ldotaccent
ENCODING 320
SWIDTH 611 0
DWIDTH 10 0
BBX 10 12 0 0
BITMAP
040000
150000
110000
110000
550000
510150
110150
550140
410000
529500
414100
565500
ENDCHAR
STARTCHAR Lslash
ENCODING 321
SWIDTH 505 0
DWIDTH 8 0
BBX 9 12 -1 0
BITMAP
010000
055000
044000
044000
095000
185400
544400
195000
044000
046580
045040
055540
ENDCHAR
STARTCHAR lslash
ENCODING 322
SWIDTH 505 0
DWIDTH 8 0
BBX 9 12 -1 0
BITMAP
010000
055000
044000
044000
095000
185400
544400
195000
044000
046580
045040
055540
ENDCHAR
STARTCHAR Nacute
ENCODING 323
SWIDTH 598 0
DWIDTH 10 0
BBX 9 15 0 0
BITMAP
000400
001500
004400
045100
164980
114440
114440
565940
511440
120840
565540
518540
515140
411180
551A40
ENDCHAR
STARTCHAR nacute
ENCODING 324
SWIDTH 598 0
DWIDTH 10 0
BBX 9 15 0 0
BITMAP
000400
001500
004400
045100
164980
114440
114440
565940
511440
120840
565540
518540
515140
411180
551A40
ENDCHAR
STARTCHAR Ncommaaccent
ENCODING 325
SWIDTH 598 0
DWIDTH 10 0
BBX 9 16 0 -4
BITMAP
040100
164980
114440
114440
565940
511440
120840
565540
518540
515140
411180
551A40
004000
015000
015000
014000
ENDCHAR
STARTCHAR ncommaaccent
ENCODING 326
SWIDTH 598 0
DWIDTH 10 0
BBX 9 16 0 -4
BITMAP
040100
164980
114440
114440
565940
511440
120840
565540
518540
515140
411180
551A40
004000
015000
015000
014000
ENDCHAR
STARTCHAR Ncaron
ENCODING 327
SWIDTH 598 0
DWIDTH 10 0
BBX 9 15 0 0
BITMAP
055500
015500
011400
046100
164980
114440
114440
565940
511440
120840
565540
518540
515140
411180
551A40
ENDCHAR
STARTCHAR ncaron
ENCODING 328
SWIDTH 598 0
DWIDTH 10 0
BBX 9 15 0 0
BITMAP
055500
015500
011400
046100
164980
114440
114440
565940
511440
120840
565540
518540
515140
411180
551A40
ENDCHAR
STARTCHAR napostrophe
ENCODING 329
SWIDTH 807 0
DWIDTH 13 0
BBX 13 12 0 0
BITMAP
00100000
14991540
44451140
50445100
00956540
00446140
00492100
00955540
00450540
00444500
00444200
00545900
ENDCHAR
STARTCHAR Eng
ENCODING 330
SWIDTH 595 0
DWIDTH 10 0
BBX 9 16 0 -4
BITMAP
040000
164540
114440
114440
565440
511940
120440
565440
418540
515240
411180
551540
005940
055180
101600
055000
ENDCHAR
STARTCHAR eng
ENCODING 331
SWIDTH 595 0
DWIDTH 10 0
BBX 9 16 0 -4
BITMAP
040000
164540
114440
114440
565440
511940
120440
565440
418540
515240
411180
551540
005940
055180
101600
055000
ENDCHAR
STARTCHAR Omacron
ENCODING 332
SWIDTH 612 0
DWIDTH 10 0
BBX 10 15 0 -1
BITMAP
015400
015400
040000
115640
104180
165640
250940
110440
110440
550550
410540
46A590
451050
255680
140000
ENDCHAR
STARTCHAR omacron
ENCODING 333
SWIDTH 612 0
DWIDTH 10 0
BBX 10 15 0 -1
BITMAP
015400
015400
040000
115640
104180
165640
250940
110440
110440
550550
410540
46A590
451050
255680
140000
ENDCHAR
STARTCHAR Obreve
ENCODING 334
SWIDTH 612 0
DWIDTH 10 0
BBX 10 17 0 -1
BITMAP
054500
045100
015900
019800
040000
115640
104180
165640
250940
110440
110440
550550
410540
46A590
451050
255680
140000
ENDCHAR
STARTCHAR obreve
ENCODING 335
SWIDTH 612 0
DWIDTH 10 0
BBX 10 17 0 -1
BITMAP
054500
045100
015900
019800
040000
115640
104180
165640
250940
110440
110440
550550
410540
46A590
451050
255680
140000
ENDCHAR
STARTCHAR Ohungarumlaut
ENCODING 336
SWIDTH 612 0
DWIDTH 10 0
BBX 10 17 0 -1
BITMAP
001100
004540
011540
014500
040000
115640
104180
165640
250940
110440
110440
550550
410540
46A590
451050
255680
140000
ENDCHAR
STARTCHAR ohungarumlaut
ENCODING 337
SWIDTH 612 0
DWIDTH 10 0
BBX 10 17 0 -1
BITMAP
001100
004540
011540
014500
040000
115640
104180
165640
250940
110440
110440
550550
410540
46A590
451050
255680
140000
ENDCHAR
STARTCHAR OE
ENCODING 338
SWIDTH 831 0
DWIDTH 13 0
BBX 14 13 0 -1
BITMAP
04010000
115A5940
10418450
16565540
25094000
11045500
11044100
55095500
41054000
46955540
45415040
255A5540
14000000
ENDCHAR
STARTCHAR oe
ENCODING 339
SWIDTH 831 0
DWIDTH 13 0
BBX 14 13 0 -1
BITMAP
04010000
115A5940
10418450
16565540
25094000
11045500
11044100
55095500
41054000
46955540
45415040
255A5540
14000000
ENDCHAR
STARTCHAR Racute
ENCODING 340
SWIDTH 532 0
DWIDTH 9 0
BBX 9 16 0 -1
BITMAP
001400
001400
004400
055000
215000
201500
164040
556500
424200
129800
524400
568500
511100
411040
510540
140000
ENDCHAR
STARTCHAR racute
ENCODING 341
SWIDTH 532 0
DWIDTH 9 0
BBX 9 16 0 -1
BITMAP
001400
001400
004400
055000
215000
201500
164040
556500
424200
129800
524400
568500
511100
411040
510540
140000
ENDCHAR
STARTCHAR Rcommaaccent
ENCODING 342
SWIDTH 532 0
DWIDTH 9 0
BBX 9 16 0 -4
BITMAP
050000
215000
201500
164040
556500
424200
129800
524400
568500
511100
411040
510540
154000
015000
044000
050000
ENDCHAR
STARTCHAR rcommaaccent
ENCODING 343
SWIDTH 532 0
DWIDTH 9 0
BBX 9 16 0 -4
BITMAP
050000
215000
201500
164040
556500
424200
129800
524400
568500
511100
411040
510540
154000
015000
044000
050000
ENDCHAR
STARTCHAR Rcaron
ENCODING 344
SWIDTH 532 0
DWIDTH 9 0
BBX 9 17 0 -1
BITMAP
051400
048400
015000
019000
050000
215000
201500
164040
556500
424200
129800
524400
568500
511100
411040
510540
140000
ENDCHAR
STARTCHAR rcaron
ENCODING 345
SWIDTH 532 0
DWIDTH 9 0
BBX 9 17 0 -1
BITMAP
051400
048400
015000
019000
050000
215000
201500
164040
556500
424200
129800
524400
568500
511100
411040
510540
140000
ENDCHAR
STARTCHAR Sacute
ENCODING 346
SWIDTH 442 0
DWIDTH 7 0
BBX 7 16 0 0
BITMAP
0040
0110
0150
0540
0014
6A44
5514
4250
1100
1440
0440
0550
0210
5644
4144
5550
ENDCHAR
STARTCHAR sacute
ENCODING 347
SWIDTH 442 0
DWIDTH 7 0
BBX 7 16 0 0
BITMAP
0040
0110
0150
0540
0014
6A44
5514
4250
1100
1440
0440
0550
0210
5644
4144
5550
ENDCHAR
STARTCHAR Scircumflex
ENCODING 348
SWIDTH 442 0
DWIDTH 7 0
BBX 7 16 0 0
BITMAP
0580
0540
1210
1450
0014
6A44
5514
4250
1100
1440
0440
0550
0210
5644
4144
5550
ENDCHAR
STARTCHAR scircumflex
ENCODING 349
SWIDTH 442 0
DWIDTH 7 0
BBX 7 16 0 0
BITMAP
0580
0540
1210
1450
0014
6A44
5514
4250
1100
1440
0440
0550
0210
5644
4144
5550
ENDCHAR
STARTCHAR Scedilla
ENCODING 350
SWIDTH 442 0
DWIDTH 7 0
BBX 7 16 0 -4
BITMAP
0014
6A44
5514
4250
1100
1440
0440
0550
0210
5644
4144
55A0
0140
1540
1540
0400
ENDCHAR
STARTCHAR scedilla
ENCODING 351
SWIDTH 442 0
DWIDTH 7 0
BBX 7 16 0 -4
BITMAP
0014
6A44
5514
4250
1100
1440
0440
0550
0210
5644
4144
55A0
0140
1540
1540
0400
ENDCHAR
STARTCHAR Scaron
ENCODING 352
SWIDTH 442 0
DWIDTH 7 0
BBX 7 16 0 0
BITMAP
1450
1210
0540
0640
0014
6A44
5514
4250
1100
1440
0440
0550
0210
5644
4144
5550
ENDCHAR
STARTCHAR scaron
ENCODING 353
SWIDTH 442 0
DWIDTH 7 0
BBX 7 16 0 0
BITMAP
1450
1210
0540
0640
0014
6A44
5514
4250
1100
1440
0440
0550
0210
5644
4144
5550
ENDCHAR
STARTCHAR Tcommaaccent
ENCODING 354
SWIDTH 453 0
DWIDTH 7 0
BBX 8 16 0 -4
BITMAP
0104
5555
4101
5994
0540
0840
0440
0440
0940
0440
0440
0540
0100
0540
1100
1400
ENDCHAR
STARTCHAR tcommaaccent
ENCODING 355
SWIDTH 453 0
DWIDTH 7 0
BBX 8 16 0 -4
BITMAP
0104
5555
4101
5994
0540
0840
0440
0440
0940
0440
0440
0540
0100
0540
1100
1400
ENDCHAR
STARTCHAR Tcaron
ENCODING 356
SWIDTH 453 0
DWIDTH 7 0
BBX 8 16 0 0
BITMAP
1550
1550
0450
0580
0104
5555
4101
5994
0540
0840
0440
0440
0940
0440
0440
0540
ENDCHAR
STARTCHAR tcaron
ENCODING 357
SWIDTH 453 0
DWIDTH 7 0
BBX 8 16 0 0
BITMAP
1550
1550
0450
0580
0104
5555
4101
5994
0540
0840
0440
0440
0940
0440
0440
0540
ENDCHAR
STARTCHAR Tbar
ENCODING 358
SWIDTH 455 0
DWIDTH 7 0
BBX 8 12 0 -1
BITMAP
5655
4101
5994
0440
1940
1554
5004
1990
0440
0440
0940
0100
ENDCHAR
STARTCHAR tbar
ENCODING 359
SWIDTH 455 0
DWIDTH 7 0
BBX 8 12 0 -1
BITMAP
5655
4101
5994
0440
1940
1554
5004
1990
0440
0440
0940
0100
ENDCHAR
STARTCHAR Utilde
ENCODING 360
SWIDTH 583 0
DWIDTH 9 0
BBX 9 17 0 -1
BITMAP
016540
015440
048500
051900
000000
251540
111040
111440
251540
111040
110440
550940
410940
469540
454180
255A40
140000
ENDCHAR
STARTCHAR utilde
ENCODING 361
SWIDTH 583 0
DWIDTH 9 0
BBX 9 17 0 -1
BITMAP
016540
015440
048500
051900
000000
251540
111040
111440
251540
111040
110440
550940
410940
469540
454180
255A40
140000
ENDCHAR
STARTCHAR Umacron
ENCODING 362
SWIDTH 583 0
DWIDTH 9 0
BBX 9 15 0 -1
BITMAP
015400
015400
000000
251540
111040
111440
251540
111040
110440
550940
410940
469540
454180
255A40
140000
ENDCHAR
STARTCHAR umacron
ENCODING 363
SWIDTH 583 0
DWIDTH 9 0
BBX 9 15 0 -1
BITMAP
015400
015400
000000
251540
111040
111440
251540
111040
110440
550940
410940
469540
454180
255A40
140000
ENDCHAR
STARTCHAR Ubreve
ENCODING 364
SWIDTH 583 0
DWIDTH 9 0
BBX 9 17 0 -1
BITMAP
051400
051400
049800
065400
000000
251540
111040
111440
251540
111040
110440
550940
410940
469540
454180
255A40
140000
ENDCHAR
STARTCHAR ubreve
ENCODING 365
SWIDTH 583 0
DWIDTH 9 0
BBX 9 17 0 -1
BITMAP
051400
051400
049800
065400
000000
251540
111040
111440
251540
111040
110440
550940
410940
469540
454180
255A40
140000
ENDCHAR
STARTCHAR Uring
ENCODING 366
SWIDTH 583 0
DWIDTH 9 0
BBX 9 18 0 -1
BITMAP
015000
015400
045400
055800
055400
000000
251540
111040
111440
251540
111040
110440
550940
410940
469540
454180
255A40
140000
ENDCHAR
STARTCHAR uring
ENCODING 367
SWIDTH 583 0
DWIDTH 9 0
BBX 9 18 0 -1
BITMAP
015000
015400
045400
055800
055400
000000
251540
111040
111440
251540
111040
110440
550940
410940
469540
454180
255A40
140000
ENDCHAR
STARTCHAR Uhungarumlaut
ENCODING 368
SWIDTH 583 0
DWIDTH 9 0
BBX 9 17 0 -1
BITMAP
004100
011440
016100
055400
000000
251540
111040
111440
251540
111040
110440
550940
410940
469540
454180
255A40
140000
ENDCHAR
STARTCHAR uhungarumlaut
ENCODING 369
SWIDTH 583 0
DWIDTH 9 0
BBX 9 17 0 -1
BITMAP
004100
011440
016100
055400
000000
251540
111040
111440
251540
111040
110440
550940
410940
469540
454180
255A40
140000
ENDCHAR
STARTCHAR Uogonek
ENCODING 370
SWIDTH 583 0
DWIDTH 9 0
BBX 9 15 0 -4
BITMAP
251540
111040
111440
251540
111040
110440
550940
410940
469540
454180
255A40
140500
001600
000840
000140
ENDCHAR
STARTCHAR uogonek
ENCODING 371
SWIDTH 583 0
DWIDTH 9 0
BBX 9 15 0 -4
BITMAP
251540
111040
111440
251540
111040
110440
550940
410940
469540
454180
255A40
140500
001600
000840
000140
ENDCHAR
STARTCHAR Wcircumflex
ENCODING 372
SWIDTH 735 0
DWIDTH 12 0
BBX 12 16 0 -1
BITMAP
005800
004500
011500
015500
540055
445541
445144
559594
516144
115144
115A44
151554
051510
051510
065110
010040
ENDCHAR
STARTCHAR wcircumflex
ENCODING 373
SWIDTH 735 0
DWIDTH 12 0
BBX 12 16 0 -1
BITMAP
005800
004500
011500
015500
540055
445541
445144
559594
516144
115144
115A44
151554
051510
051510
065110
010040
ENDCHAR
STARTCHAR Ycircumflex
ENCODING 374
SWIDTH 484 0
DWIDTH 8 0
BBX 9 15 -1 0
BITMAP
016000
011400
045400
055400
140540
510440
105040
056500
045100
014400
019400
010400
011000
041000
015000
ENDCHAR
STARTCHAR ycircumflex
ENCODING 375
SWIDTH 484 0
DWIDTH 8 0
BBX 9 15 -1 0
BITMAP
016000
011400
045400
055400
140540
510440
105040
056500
045100
014400
019400
010400
011000
041000
015000
ENDCHAR
STARTCHAR Ydieresis
ENCODING 376
SWIDTH 484 0
DWIDTH 8 0
BBX 9 14 -1 0
BITMAP
055400
045100
055500
140540
510440
105040
056500
045100
014400
019400
010400
011000
041000
015000
ENDCHAR
STARTCHAR Zacute
ENCODING 377
SWIDTH 458 0
DWIDTH 7 0
BBX 8 16 0 0
BITMAP
0050
0050
0110
0140
0000
1654
4109
1558
0244
0410
0440
1440
1140
4254
4504
6954
ENDCHAR
STARTCHAR zacute
ENCODING 378
SWIDTH 458 0
DWIDTH 7 0
BBX 8 16 0 0
BITMAP
0050
0050
0110
0140
0000
1654
4109
1558
0244
0410
0440
1440
1140
4254
4504
6954
ENDCHAR
STARTCHAR Zdotaccent
ENCODING 379
SWIDTH 458 0
DWIDTH 7 0
BBX 8 15 0 0
BITMAP
0140
0440
0140
0000
1654
4109
1558
0244
0410
0440
1440
1140
4254
4504
6954
ENDCHAR
STARTCHAR zdotaccent
ENCODING 380
SWIDTH 458 0
DWIDTH 7 0
BBX 8 15 0 0
BITMAP
0140
0440
0140
0000
1654
4109
1558
0244
0410
0440
1440
1140
4254
4504
6954
ENDCHAR
STARTCHAR Zcaron
ENCODING 381
SWIDTH 458 0
DWIDTH 7 0
BBX 8 16 0 0
BITMAP
1550
1150
0450
0580
0000
1654
4109
1558
0244
0410
0440
1440
1140
4254
4504
6954
ENDCHAR
STARTCHAR zcaron
ENCODING 382
SWIDTH 458 0
DWIDTH 7 0
BBX 8 16 0 0
BITMAP
1550
1150
0450
0580
0000
1654
4109
1558
0244
0410
0440
1440
1140
4254
4504
6954
ENDCHAR
STARTCHAR AEacute
ENCODING 508
SWIDTH 797 0
DWIDTH 13 0
BBX 14 16 -1 0
BITMAP
00005000
00005000
00011000
00014000
00004000
00196950
00511410
00452550
01495000
01182600
05151140
09196600
14841000
11982950
51041410
15055540
ENDCHAR
STARTCHAR aeacute
ENCODING 509
SWIDTH 797 0
DWIDTH 13 0
BBX 14 16 -1 0
BITMAP
00005000
00005000
00011000
00014000
00004000
00196950
00511410
00452550
01495000
01182600
05151140
09196600
14841000
11982950
51041410
15055540
ENDCHAR
STARTCHAR Oslashacute
ENCODING 510
SWIDTH 612 0
DWIDTH 10 0
BBX 10 17 0 -1
BITMAP
000400
001100
005400
005000
040000
116940
104440
166080
256240
114540
124840
561550
445540
446590
511050
115680
150000
ENDCHAR
STARTCHAR oslashacute
ENCODING 511
SWIDTH 612 0
DWIDTH 10 0
BBX 10 17 0 -1
BITMAP
000400
001100
005400
005000
040000
116940
104440
166080
256240
114540
124840
561550
445540
446590
511050
115680
150000
ENDCHAR
STARTCHAR dotlessj
ENCODING 567
SWIDTH 482 0
DWIDTH 8 0
BBX 8 13 0 -1
BITMAP
0010
0055
0044
0044
0094
0044
5044
4494
4244
2484
1414
0564
0140
ENDCHAR
STARTCHAR circumflex
ENCODING 710
SWIDTH 308 0
DWIDTH 5 0
BBX 5 4 0 12
BITMAP
1500
1500
4840
5140
ENDCHAR
STARTCHAR caron
ENCODING 711
SWIDTH 310 0
DWIDTH 5 0
BBX 5 4 0 12
BITMAP
5140
4840
1500
1900
ENDCHAR
STARTCHAR breve
ENCODING 728
SWIDTH 333 0
DWIDTH 5 0
BBX 5 4 0 12
BITMAP
5140
5140
4980
6540
ENDCHAR
STARTCHAR dotaccent
ENCODING 729
SWIDTH 166 0
DWIDTH 3 0
BBX 3 3 0 12
BITMAP
54
44
54
ENDCHAR
STARTCHAR ring
ENCODING 730
SWIDTH 309 0
DWIDTH 5 0
BBX 5 5 0 12
BITMAP
1500
1540
4940
5540
5540
ENDCHAR
STARTCHAR ogonek
ENCODING 731
SWIDTH 226 0
DWIDTH 4 0
BBX 4 5 0 -4
BITMAP
54
44
54
51
04
ENDCHAR
STARTCHAR tilde
ENCODING 732
SWIDTH 410 0
DWIDTH 7 0
BBX 7 4 0 12
BITMAP
1554
5554
4850
5180
ENDCHAR
STARTCHAR hungarumlaut
ENCODING 733
SWIDTH 361 0
DWIDTH 6 0
BBX 6 4 0 12
BITMAP
1440
1510
4550
5540
ENDCHAR
STARTCHAR uni0312
ENCODING 786
SWIDTH 202 0
DWIDTH 3 0
BBX 3 3 0 8
BITMAP
14
44
50
ENDCHAR
STARTCHAR uni0315
ENCODING 789
SWIDTH 202 0
DWIDTH 3 0
BBX 3 3 0 8
BITMAP
14
44
50
ENDCHAR
STARTCHAR uni0326
ENCODING 806
SWIDTH 201 0
DWIDTH 3 0
BBX 3 4 0 -4
BITMAP
14
14
44
50
ENDCHAR
STARTCHAR Wgrave
ENCODING 7808
SWIDTH 735 0
DWIDTH 12 0
BBX 12 16 0 -1
BITMAP
005000
005000
004400
001400
540055
445541
445144
559594
516144
115144
115A44
151554
051510
051510
065110
010040
ENDCHAR
STARTCHAR wgrave
ENCODING 7809
SWIDTH 735 0
DWIDTH 12 0
BBX 12 16 0 -1
BITMAP
005000
005000
004400
001400
540055
445541
445144
559594
516144
115144
115A44
151554
051510
051510
065110
010040
ENDCHAR
STARTCHAR Wacute
ENCODING 7810
SWIDTH 735 0
DWIDTH 12 0
BBX 12 16 0 -1
BITMAP
000100
000440
001500
001400
540055
445541
445144
559594
516144
115144
115A44
151554
051510
051510
065110
010040
ENDCHAR
STARTCHAR wacute
ENCODING 7811
SWIDTH 735 0
DWIDTH 12 0
BBX 12 16 0 -1
BITMAP
000100
000440
001500
001400
540055
445541
445144
559594
516144
115144
115A44
151554
051510
051510
065110
010040
ENDCHAR
STARTCHAR Wdieresis
ENCODING 7812
SWIDTH 735 0
DWIDTH 12 0
BBX 12 15 0 -1
BITMAP
015500
011440
015540
540055
445541
445144
559594
516144
115144
115A44
151554
051510
051510
065110
010040
ENDCHAR
STARTCHAR wdieresis
ENCODING 7813
SWIDTH 735 0
DWIDTH 12 0
BBX 12 15 0 -1
BITMAP
015500
011440
015540
540055
445541
445144
559594
516144
115144
115A44
151554
051510
051510
065110
010040
ENDCHAR
STARTCHAR Ygrave
ENCODING 7922
SWIDTH 484 0
DWIDTH 8 0
BBX 9 15 -1 0
BITMAP
014000
014000
011000
005000
140540
510440
105040
056500
045100
014400
019400
010400
011000
041000
015000
ENDCHAR
STARTCHAR ygrave
ENCODING 7923
SWIDTH 484 0
DWIDTH 8 0
BBX 9 15 -1 0
BITMAP
014000
014000
011000
005000
140540
510440
105040
056500
045100
014400
019400
010400
011000
041000
015000
ENDCHAR
STARTCHAR endash
ENCODING 8211
SWIDTH 591 0
DWIDTH 9 0
BBX 9 3 0 4
BITMAP
565540
410440
555540
ENDCHAR
STARTCHAR emdash
ENCODING 8212
SWIDTH 726 0
DWIDTH 12 0
BBX 12 3 0 4
BITMAP
555654
404105
555554
ENDCHAR
STARTCHAR quoteleft
ENCODING 8216
SWIDTH 291 0
DWIDTH 5 0
BBX 5 7 0 5
BITMAP
0500
1440
2100
1500
4100
4400
5400
ENDCHAR
STARTCHAR quoteright
ENCODING 8217
SWIDTH 291 0
DWIDTH 5 0
BBX 5 7 0 5
BITMAP
0500
1440
2100
1500
4100
4400
5400
ENDCHAR
STARTCHAR quotesinglbase
ENCODING 8218
SWIDTH 228 0
DWIDTH 4 0
BBX 5 4 -1 -2
BITMAP
0500
1040
4100
1400
ENDCHAR
STARTCHAR quotedblleft
ENCODING 8220
SWIDTH 532 0
DWIDTH 9 0
BBX 9 7 0 5
BITMAP
050500
145040
212100
155500
414500
444400
545400
ENDCHAR
STARTCHAR quotedblright
ENCODING 8221
SWIDTH 532 0
DWIDTH 9 0
BBX 9 7 0 5
BITMAP
050500
145040
212100
155500
414500
444400
545400
ENDCHAR
STARTCHAR quotedblbase
ENCODING 8222
SWIDTH 448 0
DWIDTH 7 0
BBX 8 4 -1 -2
BITMAP
0515
1051
4144
1454
ENDCHAR
STARTCHAR dagger
ENCODING 8224
SWIDTH 453 0
DWIDTH 7 0
BBX 7 13 0 -1
BITMAP
0540
0440
5854
4544
5954
0440
0440
0940
0440
0440
0440
0440
0540
ENDCHAR
STARTCHAR daggerdbl
ENCODING 8225
SWIDTH 462 0
DWIDTH 7 0
BBX 7 13 0 -1
BITMAP
0550
0450
5854
4544
5954
1440
0440
1950
5854
4444
1854
0440
0540
ENDCHAR
STARTCHAR bullet
ENCODING 8226
SWIDTH 275 0
DWIDTH 4 0
BBX 3 3 1 4
BITMAP
54
44
50
ENDCHAR
STARTCHAR ellipsis
ENCODING 8230
SWIDTH 605 0
DWIDTH 10 0
BBX 10 4 0 -1
BITMAP
105140
451150
455150
104000
ENDCHAR
STARTCHAR perthousand
ENCODING 8240
SWIDTH 1249 0
DWIDTH 20 0
BBX 20 11 0 0
BITMAP
2541400000
4551100000
4514400000
4515400000
5514400100
5594655554
0005455455
0011441451
0011451551
0011511511
0014159158
ENDCHAR
STARTCHAR guilsinglleft
ENCODING 8249
SWIDTH 359 0
DWIDTH 6 0
BBX 6 7 0 2
BITMAP
0540
1450
4140
5500
5140
0440
0140
ENDCHAR
STARTCHAR guilsinglright
ENCODING 8250
SWIDTH 359 0
DWIDTH 6 0
BBX 6 7 0 2
BITMAP
5400
4140
1410
0550
1050
4100
1400
ENDCHAR
STARTCHAR fraction
ENCODING 8260
SWIDTH 266 0
DWIDTH 4 0
BBX 4 11 0 0
BITMAP
05
05
11
15
11
10
54
44
44
44
50
ENDCHAR
STARTCHAR Euro
ENCODING 8364
SWIDTH 690 0
DWIDTH 11 0
BBX 11 13 0 -1
BITMAP
004000
011650
010104
055554
125400
111000
1A1000
425000
451010
152954
051104
025550
004000
ENDCHAR
STARTCHAR partialdiff
ENCODING 8706
SWIDTH 519 0
DWIDTH 8 0
BBX 10 12 -1 -1
BITMAP
005800
004400
004100
005600
005100
051100
152540
555440
145440
090450
014940
001000
ENDCHAR
STARTCHAR minus
ENCODING 8722
SWIDTH 467 0
DWIDTH 7 0
BBX 7 3 0 4
BITMAP
5554
4044
5554
ENDCHAR
STARTCHAR fi
ENCODING 64257
SWIDTH 741 0
DWIDTH 12 0
BBX 12 12 0 0
BITMAP
040010
169555
114144
125544
550095
525044
110444
565095
410044
510044
410044
550054
ENDCHAR
STARTCHAR fl
ENCODING 64258
SWIDTH 942 0
DWIDTH 15 0
BBX 16 12 0 0
BITMAP
04001000
16955500
11414400
12554400
55009500
52504400
11044400
56509500
41004400
51004654
41004501
55005654
ENDCHAR
STARTCHAR .notdef
ENCODING -1
SWIDTH 200 0
DWIDTH 3 0
BBX 1 1 0 0
BITMAP
00
ENDCHAR
STARTCHAR .null
ENCODING -1
SWIDTH 0 0
DWIDTH 0 0
BBX 1 1 0 0
BITMAP
00
ENDCHAR
STARTCHAR nonmarkingreturn
ENCODING -1
SWIDTH 200 0
DWIDTH 3 0
BBX 1 1 0 0
BITMAP
00
ENDCHAR
ENDFONT
